#!OML:ASF H:\ManfredETheater\Project 1\Capture day 1\Session 1\subject.ASF
:FULLY-SPECIFIED
:DEGREES
226
root 0.67172 18.0242 -24.2751 -174.745 19.4163 -180.518
lowerback 7.97077 0.37104 0.117241
upperback -1.60294 0.70496 2.4553
thorax -6.18499 0.412281 2.40735
lowerneck -15.8478 3.36844 2.91111
upperneck 21.1733 6.20963 -6.87739
head 9.63145 2.59357 -2.02166
rclavicle -8.93537e-014 1.82882e-014
rhumerus -39.8402 -11.7149 -71.7176
rradius 55.7261
rwrist -1.89851
rhand -24.6015 -7.92219
rfingers 7.12502
rthumb 1.89648 -37.8935
lclavicle -8.93537e-014 1.82882e-014
lhumerus -40.4638 9.43662 81.675
lradius 46.2517
lwrist -8.29989
lhand -11.9061 3.96289
lfingers 7.12502
lthumb 14.1475 33.4612
rfemur -10.8695 -1.55662 18.4858
rtibia 27.6464
rfoot -15.2599 -12.7668
rtoes -27.9364
lfemur -26.316 -5.20875 -15.9651
ltibia 38.362
lfoot -14.1965 0.510763
ltoes -0.37502
227
root 0.677493 18.0233 -24.3092 -174.566 19.3091 -180.463
lowerback 7.94375 0.388427 0.136053
upperback -1.6265 0.729544 2.44598
thorax -6.1951 0.423648 2.38385
lowerneck -15.8512 3.33723 2.86478
upperneck 21.1846 6.17177 -6.84391
head 9.63125 2.57605 -2.00734
rclavicle -3.20043e-014 8.74653e-015
rhumerus -39.6781 -11.4271 -72.2222
rradius 55.4716
rwrist -1.52537
rhand -24.6747 -7.92794
rfingers 7.12502
rthumb 1.82579 -37.8999
lclavicle -3.20043e-014 8.74653e-015
lhumerus -40.3146 9.42191 81.6606
lradius 46.6406
lwrist -7.88152
lhand -12.1869 4.2577
lfingers 7.12502
lthumb 13.8769 33.7747
rfemur -10.8324 -1.4979 18.5437
rtibia 27.5143
rfoot -15.3065 -12.9948
rtoes -28.0992
lfemur -26.4531 -5.29731 -15.9225
ltibia 38.4848
lfoot -14.3385 0.533241
ltoes -0.288817
228
root 0.682862 18.022 -24.3441 -174.386 19.1896 -180.417
lowerback 7.91513 0.402965 0.152619
upperback -1.64976 0.749941 2.43558
thorax -6.20377 0.432979 2.36104
lowerneck -15.8516 3.30532 2.81638
upperneck 21.1839 6.13375 -6.81719
head 9.62652 2.55767 -1.99506
rclavicle -2.14687e-014 1.27222e-014
rhumerus -39.5293 -11.1252 -72.7357
rradius 55.2526
rwrist -1.21039
rhand -24.755 -7.9404
rfingers 7.12502
rthumb 1.74819 -37.913
lclavicle -2.14687e-014 1.27222e-014
lhumerus -40.1832 9.39135 81.6534
lradius 47.0279
lwrist -7.48468
lhand -12.453 4.50839
lfingers 7.12502
lthumb 13.6205 34.0428
rfemur -10.8003 -1.46035 18.5902
rtibia 27.3922
rfoot -15.3649 -13.2234
rtoes -28.3032
lfemur -26.599 -5.39234 -15.8914
ltibia 38.6149
lfoot -14.4815 0.552142
ltoes -0.206135
229
root 0.687851 18.0203 -24.3798 -174.204 19.0575 -180.374
lowerback 7.88851 0.412654 0.168053
upperback -1.67409 0.764014 2.42732
thorax -6.2145 0.439327 2.34196
lowerneck -15.8515 3.27449 2.76834
upperneck 21.175 6.09811 -6.79829
head 9.61931 2.53963 -1.98521
rclavicle -7.45443e-015 1.43125e-014
rhumerus -39.4289 -10.7473 -73.2695
rradius 55.1299
rwrist -1.01444
rhand -24.8402 -7.98213
rfingers 7.12502
rthumb 1.66592 -37.9554
lclavicle -7.45443e-015 1.43125e-014
lhumerus -40.0741 9.34952 81.6535
lradius 47.4091
lwrist -7.1105
lhand -12.7237 4.70445
lfingers 7.12502
lthumb 13.3595 34.2562
rfemur -10.7717 -1.44249 18.6317
rtibia 27.2794
rfoot -15.4293 -13.4573
rtoes -28.5546
lfemur -26.753 -5.49038 -15.866
ltibia 38.7522
lfoot -14.626 0.563534
ltoes -0.123322
230
root 0.692461 18.0181 -24.4165 -174.024 18.916 -180.342
lowerback 7.86059 0.419872 0.177045
upperback -1.69604 0.773882 2.41782
thorax -6.22185 0.443744 2.32577
lowerneck -15.8558 3.24456 2.71665
upperneck 21.1583 6.06352 -6.78029
head 9.61019 2.52146 -1.97486
rclavicle -9.93923e-017 2.3059e-014
rhumerus -39.3574 -10.3222 -73.8186
rradius 55.0784
rwrist -0.917497
rhand -24.9169 -8.0462
rfingers 7.12502
rthumb 1.59182 -38.02
lclavicle -9.93923e-017 2.3059e-014
lhumerus -39.9751 9.29044 81.6625
lradius 47.775
lwrist -6.76592
lhand -13.0024 4.84796
lfingers 7.12502
lthumb 13.0908 34.4171
rfemur -10.7469 -1.44357 18.6603
rtibia 27.177
rfoot -15.5004 -13.6936
rtoes -28.8396
lfemur -26.9109 -5.58922 -15.8548
ltibia 38.8945
lfoot -14.7732 0.568082
ltoes -0.0423382
231
root 0.69668 18.0156 -24.4541 -173.842 18.7704 -180.312
lowerback 7.82936 0.427065 0.187606
upperback -1.7136 0.78386 2.40953
thorax -6.22266 0.448156 2.30993
lowerneck -15.8653 3.21415 2.66554
upperneck 21.1294 6.02839 -6.7714
head 9.59814 2.50188 -1.96775
rclavicle 1.13307e-014 3.65764e-014
rhumerus -39.3155 -9.84314 -74.384
rradius 55.1051
rwrist -0.924615
rhand -24.9853 -8.13504
rfingers 7.12502
rthumb 1.52577 -38.1093
lclavicle 1.13307e-014 3.65764e-014
lhumerus -39.8805 9.21173 81.6837
lradius 48.1183
lwrist -6.458
lhand -13.2766 4.94504
lfingers 7.12502
lthumb 12.8266 34.531
rfemur -10.7274 -1.45493 18.6861
rtibia 27.0841
rfoot -15.5729 -13.9336
rtoes -29.1392
lfemur -27.072 -5.68555 -15.8475
ltibia 39.0415
lfoot -14.9244 0.567752
ltoes 0.0392764
232
root 0.700514 18.0129 -24.4927 -173.66 18.6206 -180.288
lowerback 7.79919 0.434796 0.19424
upperback -1.72982 0.794151 2.40154
thorax -6.22274 0.452858 2.29659
lowerneck -15.877 3.18224 2.61052
upperneck 21.0919 5.99132 -6.76433
head 9.58337 2.48079 -1.96084
rclavicle -1.94809e-014 7.95139e-015
rhumerus -39.2973 -9.33477 -74.9557
rradius 55.1881
rwrist -0.996964
rhand -25.0281 -8.25066
rfingers 7.12502
rthumb 1.48438 -38.2252
lclavicle -1.94809e-014 7.95139e-015
lhumerus -39.7937 9.11282 81.7169
lradius 48.4366
lwrist -6.19219
lhand -13.538 5.00693
lfingers 7.12502
lthumb 12.5745 34.6085
rfemur -10.712 -1.47336 18.7042
rtibia 27.001
rfoot -15.6389 -14.1787
rtoes -29.4472
lfemur -27.2337 -5.7778 -15.8496
ltibia 39.1916
lfoot -15.0797 0.560604
ltoes 0.126102
233
root 0.704076 18.0098 -24.5318 -173.482 18.4708 -180.267
lowerback 7.77833 0.444681 0.196938
upperback -1.74498 0.807117 2.39449
thorax -6.22718 0.45906 2.28609
lowerneck -15.8897 3.1495 2.55253
upperneck 21.0463 5.95274 -6.75784
head 9.56585 2.45862 -1.95381
rclavicle -1.28216e-014 2.38542e-015
rhumerus -39.2911 -8.80876 -75.5318
rradius 55.3048
rwrist -1.11114
rhand -25.065 -8.3722
rfingers 7.12502
rthumb 1.44877 -38.347
lclavicle -1.28216e-014 2.38542e-015
lhumerus -39.7122 8.99519 81.7602
lradius 48.7261
lwrist -5.96408
lhand -13.7749 5.04541
lfingers 7.12502
lthumb 12.3462 34.6609
rfemur -10.6989 -1.48114 18.7209
rtibia 26.9265
rfoot -15.6961 -14.4372
rtoes -29.7316
lfemur -27.3928 -5.86338 -15.8561
ltibia 39.3443
lfoot -15.2394 0.54753
ltoes 0.221149
